<?xml version="1.0" standalone="no"?>
<!DOCTYPE svg PUBLIC "-//W3C//DTD SVG 20010904//EN"
 "http://www.w3.org/TR/2001/REC-SVG-20010904/DTD/svg10.dtd">
<svg version="1.0" xmlns="http://www.w3.org/2000/svg"
 width="500.000000pt" height="500.000000pt" viewBox="0 0 500.000000 500.000000"
 preserveAspectRatio="xMidYMid meet">

<g transform="translate(0.000000,500.000000) scale(0.100000,-0.100000)"
fill="#000000" stroke="none">
<path d="M991 4980 c-97 -27 -198 -83 -282 -156 -68 -58 -82 -77 -128 -167
-94 -187 -86 24 -86 -2157 0 -2181 -8 -1970 86 -2157 46 -90 60 -109 128 -167
42 -37 111 -83 156 -105 153 -76 39 -71 1635 -71 1596 0 1482 -5 1635 71 88
43 214 145 245 199 43 74 90 177 107 235 17 56 18 161 21 1585 l2 1525 -67 77
c-38 43 -85 99 -106 125 -21 27 -73 84 -116 128 -108 112 -261 283 -261 292 0
5 -34 44 -76 88 -113 118 -329 357 -340 376 -5 9 -57 68 -116 130 -59 63 -116
126 -128 142 l-21 27 -1112 -1 c-1044 0 -1116 -2 -1176 -19z m2019 -970 l0
-640 570 0 570 0 0 -1359 c0 -979 -3 -1373 -11 -1409 -26 -111 -139 -221 -249
-242 -72 -14 -2708 -14 -2780 0 -110 21 -223 131 -249 242 -16 72 -16 3740 1
3802 28 105 141 216 240 235 24 5 463 9 976 10 l932 1 0 -640z m520 168 c0
-10 118 -144 196 -223 32 -34 92 -98 133 -143 l73 -82 -281 0 -281 0 0 313 0
312 80 -85 c43 -47 79 -88 80 -92z"/>
<path d="M1536 2919 l-117 -121 -55 52 c-30 28 -58 50 -63 48 -4 -2 -44 -41
-88 -88 l-80 -85 86 -78 c48 -43 113 -104 145 -136 l57 -58 210 210 211 210
-83 83 c-46 46 -89 84 -95 84 -6 0 -64 -54 -128 -121z"/>
<path d="M2120 2790 l0 -180 815 0 815 0 0 180 0 180 -815 0 -815 0 0 -180z"/>
<path d="M1648 2201 c-1 -5 -54 -62 -116 -126 l-114 -118 -57 57 -58 57 -88
-92 c-75 -80 -85 -94 -69 -100 11 -4 75 -64 144 -133 69 -69 129 -126 135
-126 5 0 46 41 90 90 44 49 135 142 203 206 l124 117 -88 88 c-88 89 -99 97
-106 80z"/>
<path d="M2120 1955 l0 -175 815 0 815 0 0 175 0 175 -815 0 -815 0 0 -175z"/>
<path d="M1541 1254 l-123 -127 -52 52 c-28 28 -56 51 -62 51 -6 0 -48 -40
-92 -89 l-82 -89 26 -17 c15 -9 80 -69 145 -132 65 -63 122 -113 126 -111 4 1
99 95 210 208 l203 206 -88 87 -89 88 -122 -127z"/>
<path d="M2120 1120 l0 -180 815 0 815 0 0 180 0 180 -815 0 -815 0 0 -180z"/>
</g>
</svg>
