<?xml version="1.0" standalone="no"?>
<!DOCTYPE svg PUBLIC "-//W3C//DTD SVG 20010904//EN"
 "http://www.w3.org/TR/2001/REC-SVG-20010904/DTD/svg10.dtd">
<svg version="1.0" xmlns="http://www.w3.org/2000/svg"
 width="225.000000pt" height="225.000000pt" viewBox="0 0 225.000000 225.000000"
 preserveAspectRatio="xMidYMid meet">
<metadata>
Created by potrace 1.16, written by Peter Selinger 2001-2019
</metadata>
<g transform="translate(0.000000,225.000000) scale(0.100000,-0.100000)"
fill="#000000" stroke="none">
<path d="M856 2180 c-8 -38 -20 -98 -27 -134 -11 -64 -11 -65 -54 -79 l-43
-15 -64 42 c-34 24 -85 55 -111 71 l-49 28 -175 -175 -175 -175 75 -109 76
-110 -22 -46 c-21 -46 -23 -47 -85 -58 -34 -6 -94 -18 -132 -26 l-70 -16 0
-253 0 -253 70 -16 c38 -8 98 -20 134 -27 64 -11 65 -11 80 -54 l14 -44 -78
-114 -78 -114 181 -181 182 -180 113 78 113 78 44 -14 c43 -15 43 -16 54 -80
7 -36 19 -96 27 -134 l16 -70 253 0 253 0 16 70 c8 38 20 98 27 134 11 64 11
65 54 80 l44 14 113 -78 113 -78 182 180 181 181 -79 115 c-77 112 -78 115
-64 143 8 15 15 35 15 42 0 10 20 18 65 26 36 7 97 19 135 27 l70 16 0 253 0
253 -70 16 c-38 8 -98 20 -134 27 -64 11 -65 11 -80 54 l-14 44 78 113 78 113
-180 182 -181 181 -114 -78 -114 -78 -44 14 c-43 15 -43 16 -54 80 -7 36 -19
96 -27 134 l-16 70 -253 0 -253 0 -16 -70z m423 -137 c6 -38 16 -91 22 -119
l10 -51 57 -17 c31 -10 79 -29 105 -43 l48 -24 94 60 c51 34 97 61 102 61 10
0 193 -182 193 -193 0 -5 -27 -51 -61 -102 l-60 -94 24 -48 c14 -26 33 -74 43
-105 l17 -57 51 -10 c28 -6 81 -16 119 -22 l67 -11 0 -143 0 -143 -67 -11
c-38 -6 -91 -16 -119 -22 l-51 -10 -17 -57 c-10 -31 -29 -79 -43 -105 l-24
-48 60 -94 c34 -51 61 -97 61 -102 0 -10 -182 -193 -193 -193 -5 0 -51 27
-102 61 l-94 60 -48 -24 c-26 -14 -74 -33 -105 -43 l-57 -17 -10 -51 c-6 -28
-16 -81 -22 -118 l-11 -68 -143 0 -143 0 -11 68 c-6 37 -16 90 -22 118 l-10
51 -57 17 c-31 10 -79 29 -105 43 l-48 24 -94 -60 c-51 -34 -97 -61 -102 -61
-10 0 -193 182 -193 193 0 5 27 51 61 102 l60 94 -24 48 c-14 26 -33 74 -43
105 l-17 57 -51 10 c-28 6 -81 16 -118 22 l-68 11 0 143 0 143 68 11 c37 6 90
16 118 22 l51 10 17 57 c10 31 29 79 43 105 l24 48 -70 97 -70 97 97 98 c53
53 100 97 105 97 4 0 40 -22 80 -48 116 -78 105 -76 188 -38 41 19 88 37 105
40 30 7 31 9 58 126 l28 120 143 0 143 0 11 -67z"/>
<path d="M978 1591 c-107 -35 -221 -128 -280 -231 -78 -135 -78 -335 0 -470
35 -60 113 -142 173 -181 145 -93 363 -93 508 0 99 64 184 175 215 280 33 114
15 272 -42 371 -60 105 -173 197 -283 231 -80 25 -213 25 -291 0z m237 -126
c172 -45 287 -219 258 -391 -15 -83 -45 -144 -99 -198 -54 -54 -115 -84 -198
-99 -126 -21 -267 39 -340 146 -36 52 -66 145 -66 202 0 57 30 150 66 202 43
63 120 117 194 137 72 19 113 19 185 1z"/>
</g>
</svg>
